<svg width="13.897064" height="12.159424" viewBox="0 0 13.8971 12.1594" fill="none" xmlns="http://www.w3.org/2000/svg" xmlns:xlink="http://www.w3.org/1999/xlink">
	<desc>
			Created with Pixso.
	</desc>
	<defs/>
	<path id="Mail_1_x2C__Envelope_1" d="M6.63 9.43L4.4 7.35C4.23 7.19 3.94 7.19 3.77 7.35L0 10.87L0 11.34C0 11.79 0.39 12.15 0.86 12.15L13.02 12.15C13.5 12.15 13.89 11.79 13.89 11.34L13.89 10.87L10.12 7.35C9.94 7.19 9.66 7.19 9.48 7.35L7.26 9.43C7.09 9.59 6.8 9.59 6.63 9.43ZM11.35 6.2L13.58 8.28C13.75 8.44 13.89 8.38 13.89 8.14L13.89 3.67C13.89 3.43 13.75 3.37 13.58 3.53L11.35 5.61C11.18 5.77 11.18 6.04 11.35 6.2ZM0.86 0C0.39 0 0 0.36 0 0.81L0 0.95L6.59 7.13C6.77 7.29 7.05 7.29 7.22 7.13L13.89 0.88L13.89 0.81C13.89 0.36 13.5 0 13.02 0L0.86 0ZM0 3.67L0 8.14C0 8.38 0.14 8.44 0.31 8.28L2.53 6.2C2.71 6.04 2.71 5.77 2.53 5.61L0.31 3.53C0.14 3.37 0 3.43 0 3.67Z" fill="#000000" fill-opacity="1.000000" fill-rule="nonzero"/>
</svg>
