<svg width="14.000000" height="14.000000" viewBox="0 0 14 14" fill="none" xmlns="http://www.w3.org/2000/svg" xmlns:xlink="http://www.w3.org/1999/xlink">
	<desc>
			Created with Pixso.
	</desc>
	<defs/>
	<path id="Vector" d="M12.25 0L1.75 0C0.78 0 0 0.78 0 1.75L0 12.25C0 13.21 0.78 14 1.75 14L7.06 14L7.06 8.97L5.38 8.97L5.38 6.79L7.06 6.79L7.06 5.69C7.06 4 8.3 2.68 9.89 2.68L11.44 2.68L11.44 5.15L10.06 5.15C9.7 5.15 9.59 5.36 9.59 5.65L9.59 6.79L11.44 6.79L11.44 8.97L9.59 8.97L9.59 14L12.25 14C13.21 14 14 13.21 14 12.25L14 1.75C14 0.78 13.21 0 12.25 0Z" fill="#000000" fill-opacity="1.000000" fill-rule="nonzero"/>
</svg>
