<svg width="13.696960" height="13.697754" viewBox="0 0 13.697 13.6978" fill="none" xmlns="http://www.w3.org/2000/svg" xmlns:xlink="http://www.w3.org/1999/xlink">
	<desc>
			Created with Pixso.
	</desc>
	<defs/>
	<path id="Vector" d="M6.52 4.92C5.51 3.13 4.43 1.66 4.35 1.55C2.72 2.33 1.5 3.83 1.12 5.64C1.27 5.64 3.71 5.67 6.52 4.92ZM7.25 6.89C7.33 6.86 7.4 6.84 7.48 6.82C7.33 6.49 7.17 6.15 7 5.82C3.99 6.73 1.1 6.66 1 6.66C1 6.72 1 6.78 1 6.84C1 8.35 1.56 9.72 2.5 10.76C2.5 10.75 2.49 10.75 2.49 10.75C2.49 10.75 4.09 7.91 7.25 6.89ZM3.25 11.46L3.25 11.45C3.21 11.42 3.16 11.39 3.12 11.35C3.2 11.41 3.25 11.46 3.25 11.46ZM5.44 1.17C5.44 1.17 5.43 1.17 5.43 1.17C5.44 1.17 5.44 1.17 5.44 1.17ZM10.71 2.45C9.68 1.55 8.33 0.99 6.84 0.99C6.37 0.99 5.91 1.05 5.47 1.16C5.56 1.28 6.65 2.74 7.65 4.57C9.86 3.75 10.69 2.48 10.71 2.45ZM6.84 13.69C3.06 13.69 0 10.63 0 6.84C0 3.06 3.06 0 6.84 0C10.63 0 13.69 3.06 13.69 6.84C13.69 10.63 10.63 13.69 6.84 13.69ZM7.84 7.8C4.41 9 3.27 11.4 3.25 11.45C4.24 12.23 5.49 12.69 6.84 12.69C7.65 12.69 8.43 12.53 9.13 12.23C9.04 11.72 8.7 9.93 7.88 7.79C7.86 7.79 7.85 7.8 7.84 7.8ZM8.1 5.44C8.24 5.72 8.37 6.01 8.49 6.29C8.53 6.39 8.58 6.49 8.62 6.59C10.64 6.34 12.63 6.77 12.69 6.79C12.68 5.4 12.18 4.12 11.36 3.13C11.35 3.15 10.41 4.5 8.1 5.44ZM8.97 7.52C9.74 9.63 10.05 11.35 10.11 11.7C11.42 10.81 12.36 9.4 12.62 7.77C12.5 7.73 10.86 7.21 8.97 7.52Z" fill="#000000" fill-opacity="1.000000" fill-rule="nonzero"/>
</svg>
