<svg width="14.000000" height="13.803955" viewBox="0 0 14 13.804" fill="none" xmlns="http://www.w3.org/2000/svg" xmlns:xlink="http://www.w3.org/1999/xlink">
	<desc>
			Created with Pixso.
	</desc>
	<defs/>
	<path id="Vector" d="M3.17 1.49C3.17 2.32 2.56 2.99 1.55 2.99C0.61 2.99 0 2.32 0 1.49C0 0.64 0.63 0 1.59 0C2.55 0 3.15 0.64 3.17 1.49ZM0.07 13.8L0.07 4.17L3.07 4.17L3.07 13.8L0.07 13.8L0.07 13.8Z" fill="#000000" fill-opacity="1.000000" fill-rule="nonzero"/>
	<path id="Vector" d="M4.86 7.24C4.86 6.04 4.82 5.04 4.78 4.17L7.38 4.17L7.52 5.51L7.58 5.51C7.97 4.88 8.93 3.95 10.55 3.95C12.52 3.95 14 5.27 14 8.11L14 13.8L11 13.8L11 8.46C11 7.22 10.57 6.38 9.49 6.38C8.66 6.38 8.17 6.95 7.95 7.5C7.87 7.69 7.85 7.97 7.85 8.25L7.85 13.8L4.86 13.8L4.86 7.24Z" fill="#000000" fill-opacity="1.000000" fill-rule="nonzero"/>
</svg>
