<svg width="13.999237" height="11.375732" viewBox="0 0 13.9992 11.3757" fill="none" xmlns="http://www.w3.org/2000/svg" xmlns:xlink="http://www.w3.org/1999/xlink">
	<desc>
			Created with Pixso.
	</desc>
	<defs/>
	<path id="Vector" d="M13.99 1.34C13.48 1.57 12.93 1.72 12.34 1.79C12.94 1.44 13.39 0.87 13.61 0.2C13.05 0.53 12.44 0.77 11.78 0.9C11.26 0.34 10.51 0 9.69 0C8.1 0 6.81 1.28 6.81 2.87C6.81 3.09 6.84 3.31 6.89 3.52C4.5 3.4 2.39 2.26 0.97 0.52C0.72 0.94 0.58 1.44 0.58 1.96C0.58 2.96 1.09 3.84 1.86 4.35C1.39 4.34 0.94 4.21 0.56 4C0.56 4.01 0.56 4.02 0.56 4.03C0.56 5.42 1.55 6.59 2.86 6.85C2.62 6.91 2.37 6.95 2.1 6.95C1.92 6.95 1.74 6.93 1.56 6.9C1.93 8.04 2.99 8.87 4.25 8.89C3.26 9.66 2.03 10.12 0.68 10.12C0.45 10.12 0.22 10.11 0 10.08C1.27 10.9 2.78 11.37 4.4 11.37C9.68 11.37 12.57 6.99 12.57 3.2C12.57 3.07 12.57 2.95 12.56 2.83C13.12 2.42 13.61 1.92 13.99 1.34Z" fill="#000000" fill-opacity="1.000000" fill-rule="nonzero"/>
</svg>
