<svg width="13.998352" height="13.998291" viewBox="0 0 13.9984 13.9983" fill="none" xmlns="http://www.w3.org/2000/svg" xmlns:xlink="http://www.w3.org/1999/xlink">
	<desc>
			Created with Pixso.
	</desc>
	<defs/>
	<path id="Vector" d="M11.23 6.99C11.23 9.33 9.33 11.23 6.99 11.23C4.66 11.23 2.76 9.33 2.76 6.99C2.76 6.72 2.79 6.44 2.84 6.18L0 6.18L0 11.81C0 13.01 0.97 13.99 2.18 13.99L11.81 13.99C13.01 13.99 13.99 13.01 13.99 11.81L13.99 6.18L11.15 6.18C11.2 6.44 11.23 6.72 11.23 6.99ZM11.81 0L2.18 0C0.97 0 0 0.97 0 2.18L0 4.55L3.54 4.55C4.3 3.47 5.57 2.76 6.99 2.76C8.42 2.76 9.68 3.47 10.45 4.55L13.99 4.55L13.99 2.18C13.99 0.97 13.01 0 11.81 0ZM12.88 2.7C12.88 2.91 12.7 3.09 12.48 3.09L11.31 3.09C11.1 3.09 10.92 2.91 10.92 2.7L10.92 1.53C10.92 1.31 11.1 1.13 11.31 1.13L12.48 1.13C12.7 1.13 12.88 1.31 12.88 1.53L12.88 2.7ZM9.6 6.99C9.6 5.56 8.43 4.39 6.99 4.39C5.56 4.39 4.39 5.56 4.39 6.99C4.39 8.43 5.56 9.6 6.99 9.6C8.43 9.6 9.6 8.43 9.6 6.99Z" fill="#000000" fill-opacity="1.000000" fill-rule="nonzero"/>
</svg>
