<svg width="13.908875" height="9.177490" viewBox="0 0 13.9089 9.17749" fill="none" xmlns="http://www.w3.org/2000/svg" xmlns:xlink="http://www.w3.org/1999/xlink">
	<desc>
			Created with Pixso.
	</desc>
	<defs/>
	<path id="Vector" d="M5.61 4.1C5.61 4.1 6.92 4 6.92 2.39C6.92 0.78 5.85 0 4.48 0L0 0L0 8.98L4.48 8.98C4.48 8.98 7.22 9.07 7.22 6.33C7.22 6.33 7.34 4.1 5.61 4.1ZM1.97 1.59L4.48 1.59C4.48 1.59 5.09 1.59 5.09 2.53C5.09 3.46 4.73 3.6 4.33 3.6L1.97 3.6L1.97 1.59ZM4.36 7.38L1.97 7.38L1.97 4.98L4.48 4.98C4.48 4.98 5.39 4.97 5.39 6.22C5.39 7.27 4.71 7.38 4.36 7.38ZM10.88 2.28C7.56 2.28 7.56 5.73 7.56 5.73C7.56 5.73 7.34 9.17 10.88 9.17C10.88 9.17 13.83 9.35 13.83 6.78L12.31 6.78C12.31 6.78 12.36 7.75 10.93 7.75C10.93 7.75 9.41 7.85 9.41 6.18L13.88 6.18C13.88 6.18 14.37 2.28 10.88 2.28ZM12.23 4.98L9.39 4.98C9.39 4.98 9.58 3.6 10.91 3.6C12.24 3.6 12.23 4.98 12.23 4.98ZM12.58 0.52L9.02 0.52L9.02 1.63L12.58 1.63L12.58 0.52Z" fill="#000000" fill-opacity="1.000000" fill-rule="nonzero"/>
</svg>
